<mxfile host="app.diagrams.net" modified="2024-04-04T08:13:38.293Z" agent="Mozilla/5.0 (Macintosh; Intel Mac OS X 10_15_7) AppleWebKit/537.36 (KHTML, like Gecko) Chrome/123.0.0.0 Safari/537.36" etag="7Zltjvo8xZ61MHaQHPSz" version="24.2.1" type="device">
  <diagram name="Page-1" id="6UG-b39FniTsicbXlUkd">
    <mxGraphModel dx="1060" dy="711" grid="1" gridSize="10" guides="1" tooltips="1" connect="1" arrows="1" fold="1" page="1" pageScale="1" pageWidth="827" pageHeight="1169" math="0" shadow="0">
      <root>
        <mxCell id="0" />
        <mxCell id="1" parent="0" />
        <mxCell id="nqxarUzdSPfdHQBo2Fow-1" value="" style="endArrow=none;html=1;rounded=0;" edge="1" parent="1">
          <mxGeometry width="50" height="50" relative="1" as="geometry">
            <mxPoint x="360" y="360" as="sourcePoint" />
            <mxPoint x="840" y="360" as="targetPoint" />
          </mxGeometry>
        </mxCell>
        <mxCell id="nqxarUzdSPfdHQBo2Fow-2" value="&lt;b style=&quot;font-weight:normal;&quot; id=&quot;docs-internal-guid-b9d0d11a-7fff-98da-0fdc-95bdbebd1be6&quot;&gt;&lt;p dir=&quot;ltr&quot; style=&quot;line-height:1.38;margin-top:0pt;margin-bottom:0pt;&quot;&gt;&lt;span style=&quot;font-family: Arial, sans-serif; color: rgb(0, 0, 0); background-color: transparent; font-weight: 400; font-style: normal; font-variant: normal; text-decoration: none; vertical-align: baseline; white-space: pre-wrap;&quot;&gt;&lt;font style=&quot;font-size: 36px;&quot;&gt;[0, 1, 0, 2, 1, 0, 1, 3, 2, 1, 2, 1]&lt;/font&gt;&lt;/span&gt;&lt;/p&gt;&lt;/b&gt;" style="text;whiteSpace=wrap;html=1;strokeColor=#FF3399;" vertex="1" parent="1">
          <mxGeometry x="360" y="380" width="490" height="80" as="geometry" />
        </mxCell>
        <mxCell id="nqxarUzdSPfdHQBo2Fow-3" value="" style="rounded=0;whiteSpace=wrap;html=1;" vertex="1" parent="1">
          <mxGeometry x="400" y="320" width="40" height="40" as="geometry" />
        </mxCell>
        <mxCell id="nqxarUzdSPfdHQBo2Fow-4" value="" style="rounded=0;whiteSpace=wrap;html=1;" vertex="1" parent="1">
          <mxGeometry x="480" y="280" width="40" height="80" as="geometry" />
        </mxCell>
        <mxCell id="nqxarUzdSPfdHQBo2Fow-5" value="" style="rounded=0;whiteSpace=wrap;html=1;" vertex="1" parent="1">
          <mxGeometry x="520" y="320" width="40" height="40" as="geometry" />
        </mxCell>
        <mxCell id="nqxarUzdSPfdHQBo2Fow-6" value="" style="rounded=0;whiteSpace=wrap;html=1;" vertex="1" parent="1">
          <mxGeometry x="600" y="320" width="40" height="40" as="geometry" />
        </mxCell>
        <mxCell id="nqxarUzdSPfdHQBo2Fow-7" value="" style="rounded=0;whiteSpace=wrap;html=1;" vertex="1" parent="1">
          <mxGeometry x="640" y="240" width="40" height="120" as="geometry" />
        </mxCell>
        <mxCell id="nqxarUzdSPfdHQBo2Fow-8" value="" style="rounded=0;whiteSpace=wrap;html=1;" vertex="1" parent="1">
          <mxGeometry x="680" y="280" width="40" height="80" as="geometry" />
        </mxCell>
        <mxCell id="nqxarUzdSPfdHQBo2Fow-9" value="" style="rounded=0;whiteSpace=wrap;html=1;" vertex="1" parent="1">
          <mxGeometry x="720" y="320" width="40" height="40" as="geometry" />
        </mxCell>
        <mxCell id="nqxarUzdSPfdHQBo2Fow-10" value="" style="rounded=0;whiteSpace=wrap;html=1;" vertex="1" parent="1">
          <mxGeometry x="760" y="280" width="40" height="80" as="geometry" />
        </mxCell>
        <mxCell id="nqxarUzdSPfdHQBo2Fow-11" value="" style="rounded=0;whiteSpace=wrap;html=1;" vertex="1" parent="1">
          <mxGeometry x="800" y="320" width="40" height="40" as="geometry" />
        </mxCell>
        <mxCell id="nqxarUzdSPfdHQBo2Fow-12" style="edgeStyle=orthogonalEdgeStyle;rounded=0;orthogonalLoop=1;jettySize=auto;html=1;exitX=0.5;exitY=1;exitDx=0;exitDy=0;" edge="1" parent="1" source="nqxarUzdSPfdHQBo2Fow-2" target="nqxarUzdSPfdHQBo2Fow-2">
          <mxGeometry relative="1" as="geometry" />
        </mxCell>
        <mxCell id="nqxarUzdSPfdHQBo2Fow-14" value="&lt;span style=&quot;color: rgb(0, 0, 0); font-family: Arial, sans-serif; font-size: 36px; font-style: normal; font-variant-ligatures: normal; font-variant-caps: normal; font-weight: 400; letter-spacing: normal; orphans: 2; text-align: left; text-indent: 0px; text-transform: none; widows: 2; word-spacing: 0px; -webkit-text-stroke-width: 0px; white-space: pre-wrap; background-color: rgb(251, 251, 251); text-decoration-thickness: initial; text-decoration-style: initial; text-decoration-color: initial; display: inline !important; float: none;&quot;&gt;[0, 1, 1, 2, 2, 2, 2, 3, 3, 3, 3, 3]&lt;/span&gt;" style="text;whiteSpace=wrap;html=1;" vertex="1" parent="1">
          <mxGeometry x="350" y="490" width="510" height="70" as="geometry" />
        </mxCell>
        <mxCell id="nqxarUzdSPfdHQBo2Fow-15" value="&lt;span style=&quot;color: rgb(0, 0, 0); font-family: Arial, sans-serif; font-size: 36px; font-style: normal; font-variant-ligatures: normal; font-variant-caps: normal; font-weight: 400; letter-spacing: normal; orphans: 2; text-align: left; text-indent: 0px; text-transform: none; widows: 2; word-spacing: 0px; -webkit-text-stroke-width: 0px; white-space: pre-wrap; background-color: rgb(251, 251, 251); text-decoration-thickness: initial; text-decoration-style: initial; text-decoration-color: initial; display: inline !important; float: none;&quot;&gt;[3, 3, 3, 3, 3, 3, 3, 3, 2, 2, 2, 1]&lt;/span&gt;" style="text;whiteSpace=wrap;html=1;" vertex="1" parent="1">
          <mxGeometry x="350" y="580" width="510" height="70" as="geometry" />
        </mxCell>
        <mxCell id="nqxarUzdSPfdHQBo2Fow-17" value="&lt;span style=&quot;color: rgb(0, 0, 0); font-family: Arial, sans-serif; font-size: 36px; font-style: normal; font-variant-ligatures: normal; font-variant-caps: normal; font-weight: 400; letter-spacing: normal; orphans: 2; text-align: left; text-indent: 0px; text-transform: none; widows: 2; word-spacing: 0px; -webkit-text-stroke-width: 0px; white-space: pre-wrap; background-color: rgb(251, 251, 251); text-decoration-thickness: initial; text-decoration-style: initial; text-decoration-color: initial; display: inline !important; float: none;&quot;&gt;[0, 1, 1, 2, 2, 2, 2, 3, 2, 2, 2, 1]&lt;/span&gt;" style="text;whiteSpace=wrap;html=1;strokeColor=#FF0080;" vertex="1" parent="1">
          <mxGeometry x="340" y="670" width="510" height="70" as="geometry" />
        </mxCell>
        <mxCell id="nqxarUzdSPfdHQBo2Fow-18" value="&lt;span style=&quot;color: rgb(0, 0, 0); font-family: Arial, sans-serif; font-size: 36px; font-style: normal; font-variant-ligatures: normal; font-variant-caps: normal; font-weight: 400; letter-spacing: normal; orphans: 2; text-align: left; text-indent: 0px; text-transform: none; widows: 2; word-spacing: 0px; -webkit-text-stroke-width: 0px; white-space: pre-wrap; background-color: rgb(251, 251, 251); text-decoration-thickness: initial; text-decoration-style: initial; text-decoration-color: initial; display: inline !important; float: none;&quot;&gt;[0, 0, 1, 0, 1, 2, 1, 0, 0, 1, 0, 0]&lt;/span&gt;" style="text;whiteSpace=wrap;html=1;" vertex="1" parent="1">
          <mxGeometry x="350" y="770" width="510" height="70" as="geometry" />
        </mxCell>
        <mxCell id="nqxarUzdSPfdHQBo2Fow-19" value="2" style="text;html=1;align=center;verticalAlign=middle;resizable=0;points=[];autosize=1;strokeColor=none;fillColor=none;" vertex="1" parent="1">
          <mxGeometry x="435" y="328" width="30" height="30" as="geometry" />
        </mxCell>
        <mxCell id="nqxarUzdSPfdHQBo2Fow-20" value="2" style="text;html=1;align=center;verticalAlign=middle;resizable=0;points=[];autosize=1;strokeColor=none;fillColor=none;" vertex="1" parent="1">
          <mxGeometry x="525" y="285" width="30" height="30" as="geometry" />
        </mxCell>
        <mxCell id="nqxarUzdSPfdHQBo2Fow-24" value="4" style="text;html=1;align=center;verticalAlign=middle;resizable=0;points=[];autosize=1;strokeColor=none;fillColor=none;" vertex="1" parent="1">
          <mxGeometry x="565" y="288" width="30" height="30" as="geometry" />
        </mxCell>
        <mxCell id="nqxarUzdSPfdHQBo2Fow-27" value="2" style="text;html=1;align=center;verticalAlign=middle;resizable=0;points=[];autosize=1;strokeColor=none;fillColor=none;" vertex="1" parent="1">
          <mxGeometry x="595" y="288" width="30" height="30" as="geometry" />
        </mxCell>
        <mxCell id="nqxarUzdSPfdHQBo2Fow-28" value="2" style="text;html=1;align=center;verticalAlign=middle;resizable=0;points=[];autosize=1;strokeColor=none;fillColor=none;" vertex="1" parent="1">
          <mxGeometry x="725" y="278" width="30" height="30" as="geometry" />
        </mxCell>
        <mxCell id="nqxarUzdSPfdHQBo2Fow-29" value="4n&lt;div&gt;&lt;br&gt;&lt;/div&gt;" style="text;html=1;align=center;verticalAlign=middle;resizable=0;points=[];autosize=1;strokeColor=none;fillColor=none;" vertex="1" parent="1">
          <mxGeometry x="970" y="423" width="40" height="40" as="geometry" />
        </mxCell>
      </root>
    </mxGraphModel>
  </diagram>
</mxfile>
